<?xml version="1.0" encoding="utf-8"?>
<!-- Generator: Adobe Illustrator 24.0.1, SVG Export Plug-In . SVG Version: 6.00 Build 0)  -->
<svg version="1.1" id="Ebene_1" xmlns="http://www.w3.org/2000/svg" xmlns:xlink="http://www.w3.org/1999/xlink" x="0px" y="0px"
	 viewBox="0 0 690.7 518" style="enable-background:new 0 0 690.7 518;" xml:space="preserve">
<style type="text/css">
	.st0{fill:#4FAD32;}
	.st1{fill:#616160;}
	.st2{clip-path:url(#SVGID_2_);}
	.st3{fill:#CDCDCD;}
	.st4{fill:#FFFFFF;}
	.st5{fill:#389536;}
	.st6{clip-path:url(#SVGID_4_);}
	.st7{fill:none;stroke:#616160;stroke-width:2;stroke-miterlimit:10;}
</style>
<g>
	<g>
		<path class="st0" d="M503.5,481.2l-2.9-6.2h-2.9v6.2h-2.6V466h5.2c3.5,0,5.6,1.5,5.6,4.5c0,2.1-1,3.4-2.8,4.1l3.2,6.6H503.5z
			 M500.1,472.8c2.2,0,3.2-0.6,3.2-2.3c0-1.7-1.1-2.3-3.2-2.3h-2.4v4.6H500.1z"/>
	</g>
	<g>
		<path class="st0" d="M516.2,479.5c-0.8,1.3-2,1.9-3.9,1.9c-3.1,0-4.8-2-4.8-5v-1.5c0-3.2,1.6-4.9,4.5-4.9c3,0,4.4,1.8,4.4,5.1v1.2
			h-6.6v0c0,1.7,0.7,3.1,2.4,3.1c1.3,0,1.8-0.4,2.3-1.1L516.2,479.5z M509.8,474.4h4.2c-0.1-1.6-0.7-2.4-2.1-2.4
			C510.5,472,509.9,472.9,509.8,474.4z"/>
	</g>
	<g>
		<path class="st0" d="M518.6,466h2.4v11.2c0,1.2,0.2,1.9,1.7,1.9v2.1c-2.9,0-4-0.9-4-3.5V466z"/>
	</g>
	<g>
		<path class="st0" d="M533.1,479.5c-0.8,1.3-2,1.9-3.9,1.9c-3.1,0-4.8-2-4.8-5v-1.5c0-3.2,1.6-4.9,4.5-4.9c3,0,4.4,1.8,4.4,5.1v1.2
			h-6.6v0c0,1.7,0.7,3.1,2.4,3.1c1.3,0,1.8-0.4,2.3-1.1L533.1,479.5z M526.7,474.4h4.2c-0.1-1.6-0.7-2.4-2.1-2.4
			C527.5,472,526.8,472.9,526.7,474.4z"/>
	</g>
	<g>
		<path class="st0" d="M539.1,474.7h2.4v-0.9c0-1.4-0.5-1.8-2.2-1.8c-1.2,0-1.8,0.1-2.3,1l-1.7-1.2c0.8-1.3,2-1.8,4.2-1.8
			c2.8,0,4.3,0.9,4.3,3.8v7.4h-2.3v-1c-0.5,0.9-1.2,1.2-2.6,1.2c-2.4,0-3.9-1.2-3.9-3.4C535,475.6,536.7,474.7,539.1,474.7z
			 M541.5,476.5h-2.2c-1.4,0-2,0.5-2,1.5c0,1,0.7,1.4,1.9,1.4c1.4,0,2.3-0.4,2.3-2.4V476.5z"/>
	</g>
	<g>
		<path class="st0" d="M552.4,473c-0.5-0.7-1.1-1-2.4-1c-1,0-1.7,0.3-1.7,1.1c0,0.9,0.8,1.2,2.1,1.4c2.4,0.3,4,1.1,4,3.5
			c0,2-1.4,3.3-4.2,3.3c-2.2,0-3.5-0.6-4.4-1.8l1.8-1.3c0.5,0.7,1.2,1,2.6,1c1.2,0,1.9-0.4,1.9-1.2c0-0.9-0.6-1.2-2.3-1.4
			c-2.1-0.3-3.9-1.1-3.9-3.5c0-2,1.4-3.3,4.1-3.3c1.8,0,3.2,0.5,4.1,1.8L552.4,473z"/>
	</g>
	<g>
		<path class="st0" d="M564.8,479.5c-0.8,1.3-2,1.9-3.9,1.9c-3.1,0-4.8-2-4.8-5v-1.5c0-3.2,1.6-4.9,4.5-4.9c3,0,4.4,1.8,4.4,5.1v1.2
			h-6.6v0c0,1.7,0.7,3.1,2.4,3.1c1.3,0,1.8-0.4,2.3-1.1L564.8,479.5z M558.4,474.4h4.2c-0.1-1.6-0.7-2.4-2.1-2.4
			C559.1,472,558.5,472.9,558.4,474.4z"/>
	</g>
</g>
<g>
	<g>
		<path class="st1" d="M279.8,469.7c-0.7-1-1.6-1.7-3.3-1.7c-1.6,0-2.5,0.7-2.5,2c0,1.5,1.1,2,3.3,2.5c3.1,0.7,4.6,1.8,4.6,4.5
			c0,2.3-1.5,4.4-5.2,4.4c-2.6,0-4.4-0.8-5.7-2.5l2-1.4c0.9,1.1,1.8,1.7,3.5,1.7c2.1,0,2.8-0.9,2.8-2c0-1.2-0.7-2-3.3-2.5
			c-2.9-0.6-4.6-2-4.6-4.6c0-2.3,1.5-4.2,5.1-4.2c2.4,0,4.1,0.8,5.2,2.5L279.8,469.7z"/>
	</g>
	<g>
		<path class="st1" d="M293,476.3c0,2.9-1.4,5-4.7,5c-3.1,0-4.7-2-4.7-5V475c0-3.2,1.7-5,4.7-5c3,0,4.7,1.8,4.7,5V476.3z
			 M290.6,476.3V475c0-1.9-0.8-3-2.3-3c-1.6,0-2.4,1.1-2.4,3v1.3c0,1.7,0.6,3.1,2.4,3.1C290,479.3,290.6,478,290.6,476.3z"/>
	</g>
	<g>
		<path class="st1" d="M304.1,481.2h-2.3v-1c-0.5,0.8-1.2,1.2-2.7,1.2c-2.3,0-4-1.2-4-4.3v-6.9h2.4v6.6c0,2,0.9,2.5,2.1,2.5
			c1.5,0,2.2-1,2.2-2.5v-6.6h2.3V481.2z"/>
	</g>
	<g>
		<path class="st1" d="M312.6,472.9c-0.4-0.5-0.8-0.9-1.6-0.9c-1.2,0-2,0.9-2,2.5v6.6h-2.4v-11h2.3v1c0.4-0.6,1.2-1.2,2.5-1.2
			c1.4,0,2.4,0.5,3.1,1.6L312.6,472.9z"/>
	</g>
	<g>
		<path class="st1" d="M323.7,479.5c-0.7,1.3-2,1.9-3.9,1.9c-3.1,0-4.8-2-4.8-5v-1.5c0-3.2,1.8-4.9,4.9-4.9c1.7,0,3.1,0.6,3.8,1.8
			l-1.8,1.3c-0.4-0.6-1.1-1-2.1-1c-1.7,0-2.6,1.1-2.6,3v1.3c0,1.7,0.6,3.1,2.6,3.1c0.9,0,1.7-0.3,2.1-1.1L323.7,479.5z"/>
	</g>
	<g>
		<path class="st1" d="M333.4,479.5c-0.8,1.3-2,1.9-3.9,1.9c-3.1,0-4.8-2-4.8-5v-1.5c0-3.2,1.6-4.9,4.5-4.9c3,0,4.4,1.8,4.4,5.1v1.2
			h-6.6v0c0,1.7,0.7,3.1,2.4,3.1c1.3,0,1.8-0.4,2.3-1.1L333.4,479.5z M327,474.4h4.2c-0.1-1.6-0.7-2.4-2.1-2.4
			C327.7,472,327.1,472.9,327,474.4z"/>
	</g>
	<g>
		<path class="st1" d="M349.8,470.7c-0.4-1.8-1.4-2.7-3.1-2.7c-2,0-3.1,1.3-3.1,4.6v1.9c0,3.2,1.1,4.6,3.1,4.6
			c1.7,0,2.7-0.8,3.1-2.7h2.4c-0.5,3.4-2.5,4.9-5.5,4.9c-3.4,0-5.7-2-5.7-6.8v-1.9c0-4.8,2.3-6.8,5.7-6.8c3,0,5,1.6,5.5,4.9H349.8z"
			/>
	</g>
	<g>
		<path class="st1" d="M363.1,476.3c0,2.9-1.4,5-4.7,5c-3.1,0-4.7-2-4.7-5V475c0-3.2,1.7-5,4.7-5s4.7,1.8,4.7,5V476.3z M360.8,476.3
			V475c0-1.9-0.8-3-2.3-3c-1.6,0-2.4,1.1-2.4,3v1.3c0,1.7,0.6,3.1,2.4,3.1C360.1,479.3,360.8,478,360.8,476.3z"/>
	</g>
	<g>
		<path class="st1" d="M365.1,470.2h2.3v1c0.5-0.7,1.3-1.2,2.7-1.2c2.3,0,4,1.1,4,4.3v6.9h-2.3v-6.6c0-1.9-0.9-2.5-2.1-2.5
			c-1.5,0-2.3,1-2.3,2.5v6.6h-2.4V470.2z"/>
	</g>
	<g>
		<path class="st1" d="M375.8,470.2h1.4v-2.4h2.3v2.4h2.3v2h-2.3v5c0,1.3,0.2,1.8,1.4,1.8h0.9v2.1h-1.1c-2.6,0-3.6-0.9-3.6-3.5v-5.5
			h-1.4V470.2z"/>
	</g>
	<g>
		<path class="st1" d="M389.8,472.9c-0.4-0.5-0.8-0.9-1.6-0.9c-1.2,0-2,0.9-2,2.5v6.6h-2.4v-11h2.3v1c0.4-0.6,1.2-1.2,2.5-1.2
			c1.4,0,2.4,0.5,3.1,1.6L389.8,472.9z"/>
	</g>
	<g>
		<path class="st1" d="M401.5,476.3c0,2.9-1.4,5-4.7,5c-3.1,0-4.7-2-4.7-5V475c0-3.2,1.7-5,4.7-5s4.7,1.8,4.7,5V476.3z M399.2,476.3
			V475c0-1.9-0.8-3-2.3-3c-1.6,0-2.4,1.1-2.4,3v1.3c0,1.7,0.6,3.1,2.4,3.1C398.5,479.3,399.2,478,399.2,476.3z"/>
	</g>
	<g>
		<path class="st1" d="M403.5,466h2.4v11.2c0,1.2,0.2,1.9,1.7,1.9v2.1c-2.9,0-4-0.9-4-3.5V466z"/>
	</g>
</g>
<g>
	<g>
		<path class="st1" d="M558.6,236.4c3.6,0,5.4,1.3,5.4,3.9c0,1.6-0.9,2.8-2.2,3.3c1.7,0.5,2.7,1.7,2.7,3.6c0,2.3-1.5,4.4-5.4,4.4
			h-5.4v-15.2H558.6z M556.2,242.6h2.5c1.9,0,2.7-0.9,2.7-2.1c0-1.2-0.6-1.9-3-1.9h-2.2V242.6z M556.2,249.3h2.7c2,0,3-0.8,3-2.3
			c0-1.6-1.1-2.3-3.3-2.3h-2.4V249.3z"/>
	</g>
	<g>
		<path class="st1" d="M575.6,251.5h-2.3v-1c-0.5,0.8-1.2,1.2-2.7,1.2c-2.3,0-4-1.2-4-4.3v-6.9h2.4v6.6c0,2,0.9,2.5,2.1,2.5
			c1.5,0,2.2-1,2.2-2.5v-6.6h2.3V251.5z"/>
	</g>
	<g>
		<path class="st1" d="M578.3,236.4h2.6v2.4h-2.6V236.4z M578.4,240.5h2.4v11h-2.4V240.5z"/>
	</g>
	<g>
		<path class="st1" d="M583.6,236.4h2.4v11.2c0,1.2,0.2,1.9,1.7,1.9v2.1c-2.9,0-4-0.9-4-3.5V236.4z"/>
	</g>
	<g>
		<path class="st1" d="M596.4,236.4h2.3v15.2h-2.3v-0.8c-0.6,0.6-1.4,1-2.6,1c-2.9,0-4.4-2.1-4.4-5v-1.5c0-3.2,1.7-4.9,4.4-4.9
			c1.1,0,2,0.3,2.6,1V236.4z M596.4,246.7v-1.4c0-1.8-0.8-2.9-2.3-2.9c-1.6,0-2.4,1.1-2.4,3v1.3c0,1.7,0.7,3.1,2.4,3.1
			C595.8,249.7,596.4,248.4,596.4,246.7z"/>
	</g>
</g>
<g>
	<g>
		<path class="st0" d="M299.9,207.7c-0.4-1.8-1.4-2.7-3.1-2.7c-2,0-3.1,1.3-3.1,4.6v1.9c0,3.2,1.1,4.6,3.1,4.6
			c1.7,0,2.7-0.8,3.1-2.7h2.4c-0.5,3.4-2.5,4.9-5.5,4.9c-3.4,0-5.7-2-5.7-6.8v-1.9c0-4.8,2.3-6.8,5.7-6.8c3,0,5,1.6,5.5,4.9H299.9z"
			/>
	</g>
	<g>
		<path class="st0" d="M313.2,213.4c0,2.9-1.4,5-4.7,5c-3.1,0-4.7-2-4.7-5V212c0-3.2,1.7-5,4.7-5c3,0,4.7,1.8,4.7,5V213.4z
			 M310.9,213.3V212c0-1.9-0.8-3-2.3-3c-1.6,0-2.4,1.1-2.4,3v1.3c0,1.7,0.6,3.1,2.4,3.1C310.2,216.4,310.9,215,310.9,213.3z"/>
	</g>
	<g>
		<path class="st0" d="M315.2,207.2h2.3v1c0.5-0.7,1.3-1.2,2.7-1.2c2.3,0,4,1.1,4,4.3v6.9h-2.3v-6.6c0-1.9-0.9-2.5-2.1-2.5
			c-1.5,0-2.3,1-2.3,2.5v6.6h-2.4V207.2z"/>
	</g>
	<g>
		<path class="st0" d="M325.9,207.2h1.4v-2.4h2.3v2.4h2.3v2h-2.3v5c0,1.3,0.2,1.8,1.4,1.8h0.9v2.1h-1.1c-2.6,0-3.6-0.9-3.6-3.5v-5.5
			h-1.4V207.2z"/>
	</g>
	<g>
		<path class="st0" d="M334.2,203h2.6v2.4h-2.6V203z M334.3,207.2h2.4v11h-2.4V207.2z"/>
	</g>
	<g>
		<path class="st0" d="M339.5,207.2h2.3v1c0.5-0.7,1.3-1.2,2.7-1.2c2.3,0,4,1.1,4,4.3v6.9h-2.3v-6.6c0-1.9-0.9-2.5-2.1-2.5
			c-1.5,0-2.3,1-2.3,2.5v6.6h-2.4V207.2z"/>
	</g>
	<g>
		<path class="st0" d="M360.1,218.2h-2.3v-1c-0.5,0.8-1.2,1.2-2.7,1.2c-2.3,0-4-1.2-4-4.3v-6.9h2.4v6.6c0,2,0.9,2.5,2.1,2.5
			c1.5,0,2.2-1,2.2-2.5v-6.6h2.3V218.2z"/>
	</g>
	<g>
		<path class="st0" d="M371.5,213.4c0,2.9-1.4,5-4.7,5c-3.1,0-4.7-2-4.7-5V212c0-3.2,1.7-5,4.7-5s4.7,1.8,4.7,5V213.4z M369.2,213.3
			V212c0-1.9-0.8-3-2.3-3c-1.6,0-2.4,1.1-2.4,3v1.3c0,1.7,0.6,3.1,2.4,3.1C368.5,216.4,369.2,215,369.2,213.3z"/>
	</g>
	<g>
		<path class="st0" d="M382.6,218.2h-2.3v-1c-0.5,0.8-1.2,1.2-2.7,1.2c-2.3,0-4-1.2-4-4.3v-6.9h2.4v6.6c0,2,0.9,2.5,2.1,2.5
			c1.5,0,2.2-1,2.2-2.5v-6.6h2.3V218.2z"/>
	</g>
	<g>
		<path class="st0" d="M391.2,210.1c-0.5-0.7-1.1-1-2.4-1c-1,0-1.7,0.3-1.7,1.1c0,0.9,0.8,1.2,2.1,1.4c2.4,0.3,4,1.1,4,3.5
			c0,2-1.4,3.3-4.2,3.3c-2.2,0-3.5-0.6-4.4-1.8l1.8-1.3c0.5,0.7,1.2,1,2.6,1c1.2,0,1.9-0.4,1.9-1.2c0-0.9-0.6-1.2-2.3-1.4
			c-2.1-0.3-3.9-1.1-3.9-3.5c0-2,1.4-3.3,4.1-3.3c1.8,0,3.2,0.5,4.1,1.8L391.2,210.1z"/>
	</g>
</g>
<g>
	<g>
		<path class="st0" d="M295.7,312.8h-2.6v-15.2h2.6V312.8z"/>
	</g>
	<g>
		<path class="st0" d="M298.8,301.8h2.3v1c0.5-0.7,1.3-1.2,2.7-1.2c2.3,0,4,1.1,4,4.3v6.9h-2.3v-6.6c0-1.9-0.9-2.5-2.1-2.5
			c-1.5,0-2.3,1-2.3,2.5v6.6h-2.4V301.8z"/>
	</g>
	<g>
		<path class="st0" d="M309.5,301.8h1.4v-2.4h2.3v2.4h2.3v2h-2.3v5c0,1.3,0.2,1.8,1.4,1.8h0.9v2.1h-1.1c-2.6,0-3.6-0.9-3.6-3.5v-5.5
			h-1.4V301.8z"/>
	</g>
	<g>
		<path class="st0" d="M325.8,311.1c-0.8,1.3-2,1.9-3.9,1.9c-3.1,0-4.8-2-4.8-5v-1.5c0-3.2,1.6-4.9,4.5-4.9c3,0,4.4,1.8,4.4,5.1v1.2
			h-6.6v0c0,1.7,0.7,3.1,2.4,3.1c1.3,0,1.8-0.4,2.3-1.1L325.8,311.1z M319.4,306.1h4.2c-0.1-1.6-0.7-2.4-2.1-2.4
			C320.2,303.6,319.5,304.6,319.4,306.1z"/>
	</g>
	<g>
		<path class="st0" d="M334.8,301.8h2.3v10.8c0,3.4-1.9,4.5-4.8,4.5c-2,0-3.2-0.5-4.1-1.9l1.6-1.2c0.5,0.7,1.2,1.1,2.4,1.1
			c1.8,0,2.5-0.7,2.5-2.5v-0.5c-0.6,0.6-1.5,0.9-2.6,0.9c-2.9,0-4.4-2.1-4.4-5v-1.5c0-3.2,1.7-4.9,4.4-4.9c1.2,0,2,0.4,2.6,1V301.8z
			 M334.8,307.9v-1.3c0-1.9-0.8-3-2.3-3c-1.6,0-2.4,1.1-2.4,3v1.3c0,1.7,0.7,3.1,2.4,3.1C334.2,311,334.8,309.6,334.8,307.9z"/>
	</g>
	<g>
		<path class="st0" d="M345.6,304.5c-0.4-0.5-0.8-0.9-1.6-0.9c-1.2,0-2,0.9-2,2.5v6.6h-2.4v-11h2.3v1c0.4-0.6,1.2-1.2,2.5-1.2
			c1.4,0,2.4,0.5,3.1,1.6L345.6,304.5z"/>
	</g>
	<g>
		<path class="st0" d="M351.9,306.3h2.4v-0.9c0-1.4-0.5-1.8-2.2-1.8c-1.2,0-1.8,0.1-2.3,1l-1.7-1.2c0.8-1.3,2-1.8,4.2-1.8
			c2.8,0,4.3,0.9,4.3,3.8v7.4h-2.3v-1c-0.5,0.9-1.2,1.2-2.6,1.2c-2.4,0-3.9-1.2-3.9-3.4C347.8,307.2,349.5,306.3,351.9,306.3z
			 M354.2,308.1H352c-1.4,0-2,0.5-2,1.5c0,1,0.7,1.4,1.9,1.4c1.4,0,2.3-0.4,2.3-2.4V308.1z"/>
	</g>
	<g>
		<path class="st0" d="M358.2,301.8h1.4v-2.4h2.3v2.4h2.3v2h-2.3v5c0,1.3,0.2,1.8,1.4,1.8h0.9v2.1h-1.1c-2.6,0-3.6-0.9-3.6-3.5v-5.5
			h-1.4V301.8z"/>
	</g>
	<g>
		<path class="st0" d="M366.4,297.6h2.6v2.4h-2.6V297.6z M366.5,301.8h2.4v11h-2.4V301.8z"/>
	</g>
	<g>
		<path class="st0" d="M380.6,308c0,2.9-1.4,5-4.7,5c-3.1,0-4.7-2-4.7-5v-1.4c0-3.2,1.7-5,4.7-5c3,0,4.7,1.8,4.7,5V308z
			 M378.3,307.9v-1.3c0-1.9-0.8-3-2.3-3c-1.6,0-2.4,1.1-2.4,3v1.3c0,1.7,0.6,3.1,2.4,3.1C377.6,311,378.3,309.6,378.3,307.9z"/>
	</g>
	<g>
		<path class="st0" d="M382.6,301.8h2.3v1c0.5-0.7,1.3-1.2,2.7-1.2c2.3,0,4,1.1,4,4.3v6.9h-2.3v-6.6c0-1.9-0.9-2.5-2.1-2.5
			c-1.5,0-2.3,1-2.3,2.5v6.6h-2.4V301.8z"/>
	</g>
</g>
<g>
	<g>
		<path class="st1" d="M80.3,251.5l-2.9-6.2h-2.9v6.2h-2.6v-15.2h5.2c3.5,0,5.6,1.5,5.6,4.5c0,2.1-1,3.4-2.8,4.1l3.2,6.6H80.3z
			 M76.9,243.2c2.2,0,3.2-0.6,3.2-2.3c0-1.7-1.1-2.3-3.2-2.3h-2.4v4.6H76.9z"/>
	</g>
	<g>
		<path class="st1" d="M93,249.9c-0.8,1.3-2,1.9-3.9,1.9c-3.1,0-4.8-2-4.8-5v-1.5c0-3.2,1.6-4.9,4.5-4.9c3,0,4.4,1.8,4.4,5.1v1.2
			h-6.6v0c0,1.7,0.7,3.1,2.4,3.1c1.3,0,1.8-0.4,2.3-1.1L93,249.9z M86.6,244.8h4.2c-0.1-1.6-0.7-2.4-2.1-2.4
			C87.4,242.4,86.7,243.3,86.6,244.8z"/>
	</g>
	<g>
		<path class="st1" d="M104.8,246.8c0,2.9-1.4,5-4.3,5c-1.3,0-2.1-0.3-2.7-0.9v4.9h-2.4v-15.2h2.4v0.9c0.6-0.7,1.4-1.1,2.7-1.1
			c2.6,0,4.3,1.8,4.3,4.9V246.8z M102.4,246.7v-1.3c0-1.9-0.8-3-2.3-3c-1.5,0-2.3,1.1-2.3,2.9v1.4c0,1.7,0.6,3.1,2.3,3.1
			C101.8,249.7,102.4,248.4,102.4,246.7z"/>
	</g>
	<g>
		<path class="st1" d="M115.7,246.7c0,2.9-1.4,5-4.7,5c-3.1,0-4.7-2-4.7-5v-1.4c0-3.2,1.7-5,4.7-5c3,0,4.7,1.8,4.7,5V246.7z
			 M113.4,246.7v-1.3c0-1.9-0.8-3-2.3-3c-1.6,0-2.4,1.1-2.4,3v1.3c0,1.7,0.6,3.1,2.4,3.1C112.7,249.7,113.4,248.4,113.4,246.7z"/>
	</g>
	<g>
		<path class="st1" d="M123.7,243.3c-0.4-0.5-0.8-0.9-1.6-0.9c-1.2,0-2,0.9-2,2.5v6.6h-2.4v-11h2.3v1c0.4-0.6,1.2-1.2,2.5-1.2
			c1.4,0,2.4,0.5,3.1,1.6L123.7,243.3z"/>
	</g>
	<g>
		<path class="st1" d="M125.8,240.5h1.4v-2.4h2.3v2.4h2.3v2h-2.3v5c0,1.3,0.2,1.8,1.4,1.8h0.9v2.1h-1.1c-2.6,0-3.6-0.9-3.6-3.5v-5.5
			h-1.4V240.5z"/>
	</g>
</g>
<g>
	<g>
		<path class="st1" d="M334.4,36.3v2.2H330v13h-2.6v-13h-4.4v-2.2H334.4z"/>
	</g>
	<g>
		<path class="st1" d="M342.8,49.8c-0.8,1.3-2,1.9-3.9,1.9c-3.1,0-4.8-2-4.8-5v-1.5c0-3.2,1.6-4.9,4.5-4.9c3,0,4.4,1.8,4.4,5.1v1.2
			h-6.6v0c0,1.7,0.7,3.1,2.4,3.1c1.3,0,1.8-0.4,2.3-1.1L342.8,49.8z M336.4,44.7h4.2c-0.1-1.6-0.7-2.4-2.1-2.4
			C337.1,42.3,336.5,43.2,336.4,44.7z"/>
	</g>
	<g>
		<path class="st1" d="M351.3,43.3c-0.5-0.7-1.1-1-2.4-1c-1,0-1.7,0.3-1.7,1.1c0,0.9,0.8,1.2,2.1,1.4c2.4,0.3,4,1.1,4,3.5
			c0,2-1.4,3.3-4.2,3.3c-2.2,0-3.5-0.6-4.4-1.8l1.8-1.3c0.5,0.7,1.2,1,2.6,1c1.2,0,1.9-0.4,1.9-1.2c0-0.9-0.6-1.2-2.3-1.4
			c-2.1-0.3-3.9-1.1-3.9-3.5c0-2,1.4-3.3,4.1-3.3c1.8,0,3.2,0.5,4.1,1.8L351.3,43.3z"/>
	</g>
	<g>
		<path class="st1" d="M354.5,40.4h1.4V38h2.3v2.4h2.3v2h-2.3v5c0,1.3,0.2,1.8,1.4,1.8h0.9v2.1h-1.1c-2.6,0-3.6-0.9-3.6-3.5v-5.5
			h-1.4V40.4z"/>
	</g>
</g>
<g>
	<g>
		<path class="st1" d="M85,481.2V466h5.1c3.4,0,5.7,1.8,5.7,6.7v1.8c0,4.9-2.3,6.7-5.7,6.7H85z M93.3,474.5v-1.8
			c0-3.1-1-4.5-3.1-4.5h-2.6V479h2.6C92.3,479,93.3,477.6,93.3,474.5z"/>
	</g>
	<g>
		<path class="st1" d="M106.5,479.5c-0.8,1.3-2,1.9-3.9,1.9c-3.1,0-4.8-2-4.8-5v-1.5c0-3.2,1.6-4.9,4.5-4.9c3,0,4.4,1.8,4.4,5.1v1.2
			H100v0c0,1.7,0.7,3.1,2.4,3.1c1.3,0,1.8-0.4,2.3-1.1L106.5,479.5z M100.1,474.4h4.2c-0.1-1.6-0.7-2.4-2.1-2.4
			C100.8,472,100.2,472.9,100.1,474.4z"/>
	</g>
	<g>
		<path class="st1" d="M118.3,470.2l-4.3,11h-2.2l-4.4-11h2.6l2.9,7.9l2.8-7.9H118.3z"/>
	</g>
	<g>
		<path class="st1" d="M127.8,479.5c-0.8,1.3-2,1.9-3.9,1.9c-3.1,0-4.8-2-4.8-5v-1.5c0-3.2,1.6-4.9,4.5-4.9c3,0,4.4,1.8,4.4,5.1v1.2
			h-6.6v0c0,1.7,0.7,3.1,2.4,3.1c1.3,0,1.8-0.4,2.3-1.1L127.8,479.5z M121.4,474.4h4.2c-0.1-1.6-0.7-2.4-2.1-2.4
			C122.1,472,121.5,472.9,121.4,474.4z"/>
	</g>
	<g>
		<path class="st1" d="M130.2,466h2.4v11.2c0,1.2,0.2,1.9,1.7,1.9v2.1c-2.9,0-4-0.9-4-3.5V466z"/>
	</g>
	<g>
		<path class="st1" d="M145.3,476.3c0,2.9-1.4,5-4.7,5c-3.1,0-4.7-2-4.7-5V475c0-3.2,1.7-5,4.7-5c3,0,4.7,1.8,4.7,5V476.3z
			 M143,476.3V475c0-1.9-0.8-3-2.3-3c-1.6,0-2.4,1.1-2.4,3v1.3c0,1.7,0.6,3.1,2.4,3.1C142.3,479.3,143,478,143,476.3z"/>
	</g>
	<g>
		<path class="st1" d="M156.7,476.4c0,2.9-1.4,5-4.3,5c-1.3,0-2.1-0.3-2.7-0.9v4.9h-2.4v-15.2h2.4v0.9c0.6-0.7,1.4-1.1,2.7-1.1
			c2.6,0,4.3,1.8,4.3,4.9V476.4z M154.4,476.3V475c0-1.9-0.8-3-2.3-3c-1.5,0-2.3,1.1-2.3,2.9v1.4c0,1.7,0.6,3.1,2.3,3.1
			C153.7,479.3,154.4,478,154.4,476.3z"/>
	</g>
	<g>
		<path class="st1" d="M167.1,479.5c-0.8,1.3-2,1.9-3.9,1.9c-3.1,0-4.8-2-4.8-5v-1.5c0-3.2,1.6-4.9,4.5-4.9c3,0,4.4,1.8,4.4,5.1v1.2
			h-6.6v0c0,1.7,0.7,3.1,2.4,3.1c1.3,0,1.8-0.4,2.3-1.1L167.1,479.5z M160.7,474.4h4.2c-0.1-1.6-0.7-2.4-2.1-2.4
			C161.4,472,160.8,472.9,160.7,474.4z"/>
	</g>
	<g>
		<path class="st1" d="M175.4,472.9c-0.4-0.5-0.8-0.9-1.6-0.9c-1.2,0-2,0.9-2,2.5v6.6h-2.4v-11h2.3v1c0.4-0.6,1.2-1.2,2.5-1.2
			c1.4,0,2.4,0.5,3.1,1.6L175.4,472.9z"/>
	</g>
</g>
<g>
	<g>
		<defs>
			<path id="SVGID_1_" d="M583,450.9H342.6c-106,0-192.3-86.2-192.3-192.3c0-106,86.2-192.3,192.3-192.3
				c106,0,192.3,86.2,192.3,192.3h-100c0-50.9-41.4-92.3-92.3-92.3s-92.3,41.4-92.3,92.3c0,50.9,41.4,92.3,92.3,92.3H583l50,50
				L583,450.9z"/>
		</defs>
		<use xlink:href="#SVGID_1_"  style="overflow:visible;fill:#FFFFFF;"/>
		<clipPath id="SVGID_2_">
			<use xlink:href="#SVGID_1_"  style="overflow:visible;"/>
		</clipPath>
		<g class="st2">
			<g>
				<path class="st3" d="M583,450.9H342.6c-106,0-192.3-86.2-192.3-192.3c0-106,86.2-192.3,192.3-192.3
					c106,0,192.3,86.2,192.3,192.3h-100c0-50.9-41.4-92.3-92.3-92.3s-92.3,41.4-92.3,92.3c0,50.9,41.4,92.3,92.3,92.3H583l50,50
					L583,450.9z"/>
			</g>
		</g>
		<g class="st2">
			<g>
				<path class="st4" d="M572.7,440.6H332.3c-106,0-192.3-86.2-192.3-192.3c0-106,86.2-192.3,192.3-192.3
					c106,0,192.3,86.2,192.3,192.3h-100c0-50.9-41.4-92.3-92.3-92.3S240,197.5,240,248.3c0,50.9,41.4,92.3,92.3,92.3h240.4l50,50
					L572.7,440.6z"/>
			</g>
		</g>
		<g class="st2">
			<g>
				<path class="st5" d="M583,350.9H342.6c-0.5,0-1,0-1.5,0v100c0.5,0,1,0,1.5,0H583l50-50L583,350.9z"/>
			</g>
		</g>
		<g class="st2">
			<g>
				<g>
					<polygon class="st0" points="340.1,441.6 340.1,339.6 573.1,339.6 624.1,390.6 573.1,441.6 					"/>
				</g>
			</g>
			<g>
				<g>
					<path class="st0" d="M572.7,340.6l50,50l-50,50H341.1v-100H572.7 M573.5,338.6h-0.8H341.1h-2v2v100v2h2h231.6h0.8l0.6-0.6
						l50-50l1.4-1.4l-1.4-1.4l-50-50L573.5,338.6L573.5,338.6z"/>
				</g>
			</g>
		</g>
	</g>
	<g>
		<defs>
			<path id="SVGID_3_" d="M149.3,258.7c0-106,86.2-192.3,192.3-192.3s192.3,86.2,192.3,192.3c0,106-86.2,192.3-192.3,192.3H71.2
				v-100h270.4c50.9,0,92.3-41.4,92.3-92.3c0-50.9-41.4-92.3-92.3-92.3c-50.9,0-92.3,41.4-92.3,92.3"/>
		</defs>
		<use xlink:href="#SVGID_3_"  style="overflow:visible;fill:#CDCDCD;"/>
		<clipPath id="SVGID_4_">
			<use xlink:href="#SVGID_3_"  style="overflow:visible;"/>
		</clipPath>
		<g class="st6">
			<g>
				<path class="st3" d="M149.3,258.7c0-106,86.2-192.3,192.3-192.3s192.3,86.2,192.3,192.3c0,106-86.2,192.3-192.3,192.3H71.2v-100
					h270.4c50.9,0,92.3-41.4,92.3-92.3c0-50.9-41.4-92.3-92.3-92.3c-50.9,0-92.3,41.4-92.3,92.3"/>
			</g>
		</g>
		<g class="st6">
			<g>
				<path class="st4" d="M138.5,271c0-106,86.7-214.9,192.8-214.9s192.3,86.2,192.3,192.3c0,106-86.2,192.3-192.3,192.3H60.9v-100
					h270.4c50.9,0,92.3-41.4,92.3-92.3c0-50.9-41.4-92.3-92.3-92.3c-50.9,0-94.4,43.2-90.6,102.6"/>
			</g>
		</g>
	</g>
	<g>
		<g>
			<g>
				<path class="st1" d="M583.4,451.9l-241.3,0l0-2c69.5-0.2,133.6-38.3,167.2-99.5l0.3-0.5h73.8l51,51L583.4,451.9z M369.2,449.9
					h213.4l49-49l-49-49h-71.8C481.2,405.4,428.5,441.3,369.2,449.9z"/>
			</g>
		</g>
		<g>
			<g>
				<path class="st7" d="M245.4,258.7"/>
			</g>
		</g>
	</g>
	<g>
		<g>
			<path class="st1" d="M341.6,451.9H70.2v-102h271.4c50.3,0,91.3-40.9,91.3-91.3c0-50.3-40.9-91.3-91.3-91.3s-91.3,40.9-91.3,91.3
				h-2c0-51.4,41.8-93.3,93.3-93.3c51.4,0,93.3,41.8,93.3,93.3c0,51.4-41.8,93.3-93.3,93.3H72.2v98h269.4
				c105.5,0,191.3-85.8,191.3-191.3c0-105.5-85.8-191.3-191.3-191.3s-191.3,85.8-191.3,191.3h-2c0-106.6,86.7-193.3,193.3-193.3
				s193.3,86.7,193.3,193.3C534.8,365.2,448.1,451.9,341.6,451.9z"/>
		</g>
	</g>
	<g>
		<g>
			<g>
				<path class="st1" d="M340.6,351.9H172.4l-0.3-0.5c-15.5-28.3-23.8-60.4-23.8-92.7h2c0,31.9,8,63.4,23.2,91.3h148.8
					c-42.2-8.9-74.1-46.5-74.1-91.3h2c0,50,40.7,91,90.7,91.3v2L340.6,351.9z"/>
			</g>
		</g>
	</g>
</g>
<g>
	<g>
		<path class="st1" d="M462.1,272c-2,0-4-0.8-5.5-2.3c-1.5-1.5-2.3-3.5-2.3-5.5c0-2,0.8-4,2.3-5.5l21.7-21.7
			c-1.1-4.8,0.4-9.9,3.9-13.5c4.3-4.4,11-5.5,16.5-2.8l1.3,0.6l-8.4,8.4c-0.5,0.5-0.5,1.3,0,1.8l3.2,3.2c0.2,0.2,0.6,0.4,0.9,0.4
			c0,0,0,0,0,0c0.3,0,0.7-0.1,0.9-0.4l8.4-8.4l0.6,1.3c2.7,5.5,1.5,12.2-2.8,16.5c-3.5,3.5-8.6,5-13.5,3.9l-21.6,21.7
			C466.1,271.2,464.1,272,462.1,272z M492.4,221.4c-3.3,0-6.5,1.3-8.9,3.7c-3.2,3.2-4.4,7.8-3.2,12.1l0.2,0.6L458,260.2
			c-1.1,1.1-1.7,2.6-1.7,4.1s0.6,3,1.7,4.1c2.3,2.2,5.9,2.2,8.2,0l22.4-22.5l0.6,0.2c4.3,1.2,8.9-0.1,12.1-3.2
			c3.4-3.4,4.5-8.4,3-12.9l-6.4,6.4c-0.6,0.6-1.4,1-2.3,1c0,0,0,0,0,0c-0.9,0-1.7-0.3-2.3-1l-3.2-3.2c-1.3-1.3-1.3-3.3,0-4.6
			l6.4-6.4C495.2,221.6,493.8,221.4,492.4,221.4z"/>
	</g>
</g>
<g>
	<g>
		<g>
			<path class="st1" d="M176.2,267.3c-8.7,0-15.7-7.1-15.7-15.7s7.1-15.7,15.7-15.7s15.7,7.1,15.7,15.7S184.8,267.3,176.2,267.3z
				 M176.2,237.8c-7.6,0-13.7,6.2-13.7,13.7s6.2,13.7,13.7,13.7s13.7-6.2,13.7-13.7S183.7,237.8,176.2,237.8z"/>
		</g>
	</g>
	<g>
		<g>
			
				<rect x="171.6" y="250.5" transform="matrix(0.6644 -0.7474 0.7474 0.6644 -127.8015 218.4701)" class="st1" width="15.4" height="2"/>
		</g>
	</g>
	<g>
		<g>
			
				<rect x="170" y="250.6" transform="matrix(0.6247 -0.7809 0.7809 0.6247 -134.7309 229.1675)" class="st1" width="2" height="8.2"/>
		</g>
	</g>
</g>
<g>
	<g>
		<g>
			<rect x="330.6" y="381" class="st1" width="36.1" height="2"/>
		</g>
	</g>
	<g>
		<g>
			<path class="st1" d="M319.3,387.5c-3,0-5.5-2.5-5.5-5.5s2.5-5.5,5.5-5.5s5.5,2.5,5.5,5.5S322.4,387.5,319.3,387.5z M319.3,378.5
				c-1.9,0-3.5,1.6-3.5,3.5c0,1.9,1.6,3.5,3.5,3.5s3.5-1.6,3.5-3.5C322.9,380,321.3,378.5,319.3,378.5z"/>
		</g>
	</g>
	<g>
		<g>
			<rect x="330.6" y="396.8" class="st1" width="36.1" height="2"/>
		</g>
	</g>
	<g>
		<g>
			<path class="st1" d="M319.3,403.3c-3,0-5.5-2.5-5.5-5.5s2.5-5.5,5.5-5.5s5.5,2.5,5.5,5.5S322.4,403.3,319.3,403.3z M319.3,394.3
				c-1.9,0-3.5,1.6-3.5,3.5c0,1.9,1.6,3.5,3.5,3.5s3.5-1.6,3.5-3.5C322.9,395.8,321.3,394.3,319.3,394.3z"/>
		</g>
	</g>
	<g>
		<g>
			<rect x="330.6" y="412.6" class="st1" width="36.1" height="2"/>
		</g>
	</g>
	<g>
		<g>
			<path class="st1" d="M319.3,419.1c-3,0-5.5-2.5-5.5-5.5s2.5-5.5,5.5-5.5s5.5,2.5,5.5,5.5S322.4,419.1,319.3,419.1z M319.3,410.1
				c-1.9,0-3.5,1.6-3.5,3.5c0,1.9,1.6,3.5,3.5,3.5s3.5-1.6,3.5-3.5C322.9,411.6,321.3,410.1,319.3,410.1z"/>
		</g>
	</g>
</g>
<g>
	<g>
		<g>
			<path class="st1" d="M213.9,266.5c-8.7,0-15.7-7.1-15.7-15.7c0-8.7,7.1-15.7,15.7-15.7c8.7,0,15.7,7.1,15.7,15.7
				C229.7,259.4,222.6,266.5,213.9,266.5z M213.9,237c-7.6,0-13.7,6.2-13.7,13.7c0,7.6,6.2,13.7,13.7,13.7s13.7-6.2,13.7-13.7
				C227.7,243.2,221.5,237,213.9,237z"/>
		</g>
	</g>
	<g>
		<g>
			
				<rect x="212.7" y="239.4" transform="matrix(0.7071 -0.7071 0.7071 0.7071 -115.0334 224.6582)" class="st1" width="2" height="23.6"/>
		</g>
	</g>
	<g>
		<g>
			
				<rect x="201.9" y="250.2" transform="matrix(0.7071 -0.7071 0.7071 0.7071 -115.033 224.6534)" class="st1" width="23.6" height="2"/>
		</g>
	</g>
</g>
<g>
	<g>
		<g>
			<polygon class="st1" points="361.3,136.7 320.9,136.7 320.9,87.3 326.4,87.3 326.4,89.3 322.9,89.3 322.9,134.7 359.3,134.7 
				359.3,89.3 355.8,89.3 355.8,87.3 361.3,87.3 			"/>
		</g>
	</g>
	<g>
		<g>
			<path class="st1" d="M352.3,93.8H330v-5.5c0-3,2.5-5.5,5.5-5.5h11.3c3,0,5.5,2.5,5.5,5.5V93.8z M332,91.8h18.3v-3.5
				c0-1.9-1.6-3.5-3.5-3.5h-11.3c-1.9,0-3.5,1.6-3.5,3.5V91.8z"/>
		</g>
	</g>
	<g>
		<g>
			<rect x="331" y="103.1" class="st1" width="20.3" height="2"/>
		</g>
	</g>
	<g>
		<g>
			<rect x="331" y="114.4" class="st1" width="20.3" height="2"/>
		</g>
	</g>
</g>
<g>
	<g>
		<g>
			<path class="st1" d="M130.2,397.9c-0.3,0-0.6,0-0.9,0c-5.1-0.4-9.1-5-9.1-10.5v-2.7c0-5.4,4-10,9.1-10.5c2.9-0.2,5.6,0.7,7.7,2.6
				c2.1,1.9,3.3,4.6,3.3,7.4v3.6c0,2.8-1.2,5.5-3.3,7.4C135.1,396.9,132.8,397.9,130.2,397.9z M130.2,376.2c-0.2,0-0.5,0-0.7,0
				c-4.1,0.4-7.3,4.1-7.3,8.5v2.7c0,4.4,3.2,8.1,7.3,8.5c2.3,0.2,4.5-0.5,6.1-2.1c1.7-1.5,2.6-3.7,2.6-5.9v-3.6
				c0-2.2-0.9-4.4-2.6-5.9C134.2,376.9,132.2,376.2,130.2,376.2z"/>
		</g>
	</g>
	<g>
		<g>
			<path class="st1" d="M152.7,427.7h-44.9c-0.9,0-1.8-0.4-2.4-1.1c-0.6-0.7-0.9-1.6-0.8-2.5c0.9-9.3,6.8-17.3,15.4-21.1
				c2.2-0.9,4.8-0.3,6.3,1.6l3,3.6c0.5,0.6,1.4,0.6,1.9,0l3-3.6c1.6-1.9,4.2-2.5,6.3-1.6c8.6,3.7,14.5,11.8,15.4,21.1
				c0.1,0.9-0.2,1.8-0.8,2.5C154.5,427.3,153.6,427.7,152.7,427.7z M122,404.5c-0.4,0-0.9,0.1-1.3,0.3c-7.9,3.4-13.3,10.9-14.2,19.4
				c0,0.4,0.1,0.7,0.3,1c0.2,0.3,0.6,0.4,0.9,0.4h44.9c0.4,0,0.7-0.1,0.9-0.4c0.2-0.3,0.4-0.6,0.3-1c-0.9-8.5-6.3-16-14.2-19.4
				c-1.4-0.6-3-0.2-4,1l-3,3.6c-0.6,0.7-1.5,1.2-2.5,1.2s-1.9-0.4-2.5-1.2l-3-3.6C124,405,123,404.5,122,404.5z"/>
		</g>
	</g>
</g>
<g>
	<g>
		<g>
			<path class="st4" d="M553.3,423.7h-28.6c-9,0-16.4-7.4-16.4-16.4s7.4-16.4,16.4-16.4c0.1,0,0.2,0,0.3,0c2.6-6,8.5-10,15.1-10
				c8.5,0,15.5,6.5,16.3,14.9c6.4,1.5,11,7.1,11,13.8C567.5,417.3,561.2,423.7,553.3,423.7z M524.8,392.9c-7.9,0-14.4,6.5-14.4,14.4
				s6.5,14.4,14.4,14.4h28.6c6.7,0,12.2-5.5,12.2-12.2c0-5.9-4.2-11-10.1-12l-0.8-0.1l0-0.8c-0.4-7.7-6.7-13.7-14.4-13.7
				c-6,0-11.4,3.8-13.5,9.4l-0.3,0.7l-1-0.1C525.2,392.9,525,392.9,524.8,392.9z"/>
		</g>
	</g>
	<g>
		<g>
			<polygon class="st4" points="546.6,405.2 538.8,397.3 531.3,404.8 529.9,403.4 538.8,394.5 548,403.8 			"/>
		</g>
	</g>
	<g>
		<g>
			<rect x="537.8" y="395.9" class="st4" width="2" height="20.3"/>
		</g>
	</g>
</g>
<g>
	<g>
		<g>
			<path class="st0" d="M323,258.7h-2c0-11.1,9-20.1,20.1-20.1c7.9,0,15.1,4.7,18.3,11.9l-1.8,0.8c-2.9-6.5-9.4-10.7-16.5-10.7
				C331.1,240.6,323,248.7,323,258.7z"/>
		</g>
	</g>
	<g>
		<g>
			<g>
				<rect x="357.5" y="242.9" class="st0" width="2" height="8.3"/>
			</g>
		</g>
		<g>
			<g>
				<rect x="350.2" y="250.2" class="st0" width="8.3" height="2"/>
			</g>
		</g>
	</g>
	<g>
		<g>
			<g>
				<path class="st0" d="M341.1,278.7c-7.9,0-15.1-4.7-18.3-11.9l1.8-0.8c2.9,6.5,9.4,10.7,16.5,10.7c10,0,18.1-8.1,18.1-18.1h2
					C361.2,269.7,352.2,278.7,341.1,278.7z"/>
			</g>
		</g>
		<g>
			<g>
				<rect x="322.7" y="266.1" class="st0" width="2" height="8.3"/>
			</g>
		</g>
		<g>
			<g>
				<rect x="323.7" y="265.1" class="st0" width="8.3" height="2"/>
			</g>
		</g>
	</g>
</g>
</svg>
